<?xml version="1.0" encoding="UTF-8" standalone="no"?>
<!-- Created with Inkscape (http://www.inkscape.org/) -->

<svg width="108pt" height="108pt" viewBox="0 0 38.100001 38.1" version="1.1" id="svg8"
    inkscape:version="1.3 (0e150ed6c4, 2023-07-21)" sodipodi:docname="transistor-app-icon-current.svg"
    inkscape:export-filename="transistor-app-icon-current-background.png" inkscape:export-xdpi="600"
    inkscape:export-ydpi="600" xml:space="preserve" xmlns:inkscape="http://www.inkscape.org/namespaces/inkscape"
    xmlns:sodipodi="http://sodipodi.sourceforge.net/DTD/sodipodi-0.dtd" xmlns="http://www.w3.org/2000/svg"
    xmlns:rdf="http://www.w3.org/1999/02/22-rdf-syntax-ns#" xmlns:cc="http://creativecommons.org/ns#"
    xmlns:dc="http://purl.org/dc/elements/1.1/"><defs
     id="defs2"><filter
       style="color-interpolation-filters:sRGB"
       inkscape:label="Drop Shadow"
       id="filter5622"><feFlood
         flood-opacity="0.498039"
         flood-color="rgb(0,0,0)"
         result="flood"
         id="feFlood5612" /><feComposite
         in="flood"
         in2="SourceGraphic"
         operator="in"
         result="composite1"
         id="feComposite5614" /><feGaussianBlur
         in="composite1"
         stdDeviation="0.2"
         result="blur"
         id="feGaussianBlur5616" /><feOffset
         dx="2"
         dy="0.7"
         result="offset"
         id="feOffset5618" /><feComposite
         in="SourceGraphic"
         in2="offset"
         operator="over"
         result="composite2"
         id="feComposite5620" /></filter><filter
       style="color-interpolation-filters:sRGB"
       inkscape:label="Drop Shadow"
       id="filter4906"><feFlood
         flood-opacity="0.498039"
         flood-color="rgb(0,0,0)"
         result="flood"
         id="feFlood4896" /><feComposite
         in="flood"
         in2="SourceGraphic"
         operator="in"
         result="composite1"
         id="feComposite4898" /><feGaussianBlur
         in="composite1"
         stdDeviation="0.3"
         result="blur"
         id="feGaussianBlur4900" /><feOffset
         dx="1"
         dy="1"
         result="offset"
         id="feOffset4902" /><feComposite
         in="SourceGraphic"
         in2="offset"
         operator="over"
         result="composite2"
         id="feComposite4904" /></filter><style
       id="style3854">.cls-1{fill:#fff;}</style><filter
       style="color-interpolation-filters:sRGB;"
       inkscape:label="Drop Shadow"
       id="filter1516"
       x="-0.10660003"
       y="-0.1623527"
       width="1.2132001"
       height="1.4310078"><feFlood
         flood-opacity="0.501961"
         flood-color="rgb(60,64,67)"
         result="flood"
         id="feFlood1506" /><feComposite
         in="flood"
         in2="SourceGraphic"
         operator="in"
         result="composite1"
         id="feComposite1508" /><feGaussianBlur
         in="composite1"
         stdDeviation="0.7"
         result="blur"
         id="feGaussianBlur1510" /><feOffset
         dx="0"
         dy="1.1"
         result="offset"
         id="feOffset1512" /><feComposite
         in="SourceGraphic"
         in2="offset"
         operator="over"
         result="composite2"
         id="feComposite1514" /></filter><mask
       maskUnits="userSpaceOnUse"
       id="mask921"><path
         style="display:inline;opacity:1;fill:#ffffff;fill-opacity:1;stroke-width:0.39691988"
         d="M 30.691667,19.050001 A 11.641666,11.641666 0 0 1 19.050001,30.691667 11.641666,11.641666 0 0 1 7.4083348,19.050001 11.641666,11.641666 0 0 1 19.050001,7.4083348 11.641666,11.641666 0 0 1 30.691667,19.050001 Z"
         id="path923"
         inkscape:connector-curvature="0"
         mask="none"
         clip-path="none" /></mask><mask
       maskUnits="userSpaceOnUse"
       id="mask925"><path
         style="display:inline;opacity:1;fill:#ffffff;fill-opacity:1;stroke-width:0.39691988"
         d="M 30.691667,19.050001 A 11.641666,11.641666 0 0 1 19.050001,30.691667 11.641666,11.641666 0 0 1 7.4083348,19.050001 11.641666,11.641666 0 0 1 19.050001,7.4083348 11.641666,11.641666 0 0 1 30.691667,19.050001 Z"
         id="path927"
         inkscape:connector-curvature="0"
         mask="none"
         clip-path="none" /></mask></defs><sodipodi:namedview
     id="base"
     pagecolor="#ffffff"
     bordercolor="#666666"
     borderopacity="1.0"
     inkscape:pageopacity="0.0"
     inkscape:pageshadow="2"
     inkscape:zoom="6.0876733"
     inkscape:cx="57.986029"
     inkscape:cy="54.207903"
     inkscape:document-units="pt"
     inkscape:current-layer="layer4"
     showgrid="false"
     units="pt"
     inkscape:snap-object-midpoints="true"
     inkscape:window-width="1593"
     inkscape:window-height="1216"
     inkscape:window-x="26"
     inkscape:window-y="23"
     inkscape:window-maximized="0"
     inkscape:snap-global="false"
     showguides="true"
     inkscape:guide-bbox="true"
     inkscape:showpageshadow="2"
     inkscape:pagecheckerboard="0"
     inkscape:deskcolor="#d1d1d1"><sodipodi:guide
       position="-1.3907887,19.020119"
       orientation="0,-1"
       id="guide12"
       inkscape:locked="false" /></sodipodi:namedview><metadata
     id="metadata5"><rdf:RDF><cc:Work
         rdf:about=""><dc:format>image/svg+xml</dc:format><dc:type
           rdf:resource="http://purl.org/dc/dcmitype/StillImage" /></cc:Work></rdf:RDF></metadata><g
     inkscape:groupmode="layer"
     id="layer4"
     inkscape:label="Background"
     style="display:inline"><rect
       style="display:none;opacity:1;fill:#f2003c;fill-opacity:1;stroke:none;stroke-width:0.409244;stroke-miterlimit:4;stroke-dasharray:none;stroke-opacity:0.0784314"
       id="rect879"
       width="38.100002"
       height="38.100002"
       x="-1.7888184e-06"
       y="-8.944092e-07"
       inkscape:label="Square (Red (Munsell))" /><rect
       inkscape:label="Lower Half  (Crimson)"
       y="19.050001"
       x="-1.7888184e-06"
       height="19.050001"
       width="38.100002"
       id="rect996"
       style="display:none;opacity:1;fill:#df0038;fill-opacity:1;stroke:none;stroke-width:0.289379;stroke-miterlimit:4;stroke-dasharray:none;stroke-opacity:0.0784314" /><g
       id="g12"
       inkscape:label="Rounded Rectangle"
       style="display:inline"><path
         id="path12"
         style="display:inline;opacity:1;fill:#f2003c;stroke-width:0.0280001"
         d="m 10.806289,6.3500004 h 16.487422 c 2.468784,0 4.456289,1.9875048 4.456289,4.4562886 V 27.293711 C 31.75,29.762495 29.762495,31.75 27.293711,31.75 H 10.806289 c -2.4687838,0 -4.4562886,-1.987505 -4.4562886,-4.456289 v -8.210943 -8.276479 c 0,-2.4687838 1.9875048,-4.4562886 4.4562886,-4.4562886 z"
         sodipodi:nodetypes="ssssssscss"
         inkscape:label="Square"
         inkscape:export-filename="../../../path12.png"
         inkscape:export-xdpi="600"
         inkscape:export-ydpi="600" /><path
         id="rect12"
         style="display:inline;opacity:1;fill:#df0038;fill-opacity:1;stroke-width:0.0280001"
         d="m 31.75,19.05 v 8.243711 C 31.75,29.762495 29.762495,31.75 27.293711,31.75 H 10.806289 c -2.4687838,0 -4.4562886,-1.987505 -4.4562886,-4.456289 0,-2.956606 -3e-7,-8.243711 -3e-7,-8.243711 z"
         sodipodi:nodetypes="csssscc"
         inkscape:label="Lower Half" /></g><g
       id="g13"
       inkscape:label="Circle"
       style="display:none"><path
         id="path13"
         style="display:inline;opacity:1;fill:#f2003c;fill-opacity:1;stroke-width:0.0280001"
         d="m 31.750001,19.050001 a 12.7,12.7 0 0 1 -12.7,12.7 12.7,12.7 0 0 1 -12.6999997,-12.7 12.7,12.7 0 0 1 12.6999997,-12.6999997 12.7,12.7 0 0 1 12.7,12.6999997 z"
         inkscape:label="Circle"
         inkscape:export-filename="../../../path13.png"
         inkscape:export-xdpi="600"
         inkscape:export-ydpi="600" /><path
         id="circle13"
         style="display:inline;opacity:1;fill:#df0038;stroke-width:0.0280001"
         d="m 31.750001,19.050001 c 0,7.014016 -5.685984,12.7 -12.7,12.7 -7.014016,0 -12.6999997,-5.685984 -12.6999997,-12.7 z"
         sodipodi:nodetypes="cscc"
         inkscape:label="Lower Half" /></g></g><g
     inkscape:groupmode="layer"
     id="layer5"
     inkscape:label="Radio Background"
     style="display:inline"><path
       id="path487"
       style="display:inline;fill:#f2003c;fill-opacity:1;stroke-width:0.0516765"
       class="cls-1"
       inkscape:label="Radio (background)"
       d="m 12.044743,44.734221 -0.137976,0.04031 -0.100769,0.02894 -0.02377,0.0072 c -0.01952,0.0051 -0.03878,0.01207 -0.05684,0.02067 -0.557318,0.210984 -0.921718,0.719041 -0.920874,1.283643 v 7.585066 c -2.95e-4,0.762947 0.657758,1.381828 1.469677,1.381828 h 12.821957 c 0.811,-8.11e-4 1.467906,-0.61923 1.467611,-1.381311 -1.8e-4,-2.528554 -10e-5,-5.057029 5.16e-4,-7.585583 2.95e-4,-0.762084 -0.65661,-1.379965 -1.46761,-1.380795 H 14.536064 Z"
       sodipodi:nodetypes="cccccccscccccc"
       transform="translate(0,-29.633334)" /></g><g
     transform="translate(0,-29.633334)"
     inkscape:groupmode="layer"
     id="g959"
     inkscape:label="Radio Icon"
     style="display:inline"
     inkscape:export-filename="./g959.png"
     inkscape:export-xdpi="600"
     inkscape:export-ydpi="600"><path
       id="path943"
       style="display:inline;fill:#ffffff;fill-opacity:1;stroke-width:0.0516765"
       class="cls-1"
       inkscape:label="Radio (basic shape)"
       d="m 12.044743,44.734221 -0.137976,0.04031 -0.100769,0.02894 -0.02377,0.0072 c -0.01952,0.0051 -0.03878,0.01207 -0.05684,0.02067 -0.557318,0.210984 -0.921718,0.719041 -0.920874,1.283643 v 7.585066 c -2.95e-4,0.762947 0.657758,1.381828 1.469677,1.381828 h 12.821957 c 0.811,-8.11e-4 1.467906,-0.61923 1.467611,-1.381311 -1.8e-4,-2.528554 -10e-5,-5.057029 5.16e-4,-7.585583 2.95e-4,-0.762084 -0.65661,-1.379965 -1.46761,-1.380795 H 14.536064 Z m 0.606681,1.189075 12.066447,5.17e-4 c 0.249645,5.3e-5 0.451658,0.190195 0.451652,0.42478 v 2.204 c 2.4e-5,0.234585 -0.202007,0.424727 -0.451652,0.42478 H 12.652975 c -0.249478,-5.01e-4 -0.451073,-0.19035 -0.451652,-0.42478 l -0.0021,-2.204517 c 6.79e-4,-0.234352 0.202775,-0.424278 0.452168,-0.42478 z m -0.107487,4.283976 c 0.0022,1.02e-4 0.004,4.31e-4 0.0062,5.17e-4 h 7.246586 c 0.468384,0.01798 0.468384,0.669843 0,0.687813 h -7.246586 c -0.503657,0.01928 -0.510126,-0.6991 -0.0062,-0.68833 z m 10.869621,0.0894 c 0.964953,-0.01437 1.761042,0.716927 1.76165,1.629358 -1.5e-5,0.900467 -0.776508,1.630615 -1.734778,1.631425 -2.265639,3.01e-4 -2.337014,-3.170239 -0.07338,-3.259749 0.0154,-6.06e-4 0.03119,-8.05e-4 0.04651,-10e-4 z m -10.863419,1.286744 h 7.246586 c 0.468364,0.01799 0.468364,0.669823 0,0.687813 h -7.246586 c -0.468366,-0.01799 -0.468366,-0.669823 0,-0.687813 z m -0.0062,1.37511 c 0.0022,-1.8e-5 0.004,-1.8e-5 0.0062,0 h 7.246586 c 0.472211,0.01464 0.472211,0.67369 0,0.68833 h -7.246586 c -0.503657,0.01928 -0.510126,-0.6991 -0.0062,-0.68833 z" /><path
       id="path945"
       d="m 27.050929,46.172702 h -0.486714 l -5.41e-4,2.162045 h 0.486714 c 0.135433,0 0.245223,-0.103168 0.245223,-0.230431 V 46.40113 c -0.0012,-0.126286 -0.110293,-0.228158 -0.24469,-0.228428 z"
       class="cls-1"
       inkscape:connector-curvature="0"
       style="display:inline;fill:#ffffff;fill-opacity:1;stroke-width:0.0516765"
       inkscape:label="Volume dial"
       sodipodi:nodetypes="cccssccc" /><path
       sodipodi:nodetypes="ccccc"
       inkscape:label="Antenna"
       style="display:inline;fill:#ffffff;fill-opacity:1;stroke-width:0.0516765"
       inkscape:connector-curvature="0"
       class="cls-1"
       d="m 14.536031,44.734011 10.353204,-3.002617 c 0.465924,-0.135253 0.250021,-0.791981 -0.215902,-0.656728 l -12.627845,3.659308 z"
       id="path947" /><path
       inkscape:label="Frequency Dial"
       style="display:inline;fill:#ffffff;fill-opacity:1;stroke-width:0.0516765"
       inkscape:connector-curvature="0"
       class="cls-1"
       d="m 24.443036,51.925965 a 1.0027485,0.94226262 0 1 1 -1.002748,-0.942263 1.0043477,0.94376542 0 0 1 1.002748,0.942263 z"
       id="path953" /><path
       style="display:inline;fill:#ffffff;fill-opacity:1;stroke-width:0.0516765"
       d="m 21.218512,45.923621 v 2.16506 c 8.7e-5,0.344064 -0.549007,0.344064 -0.549093,0 v -2.165459 z"
       id="path957"
       inkscape:connector-curvature="0"
       sodipodi:nodetypes="ccccc"
       inkscape:label="Frequency Needle" /></g><g
     inkscape:groupmode="layer"
     id="g923"
     inkscape:label="Stencil"
     style="display:none"><path
       id="rect8"
       style="display:inline;opacity:1;fill:#ffffff;fill-opacity:1;stroke-width:0.0280001"
       d="M 0,0 V 38.1 H 38.1 V 0 Z m 10.806059,6.3500001 h 16.487883 c 2.468781,0 4.456058,1.9872775 4.456058,4.4560589 V 27.293942 C 31.75,29.762723 29.762723,31.75 27.293942,31.75 H 10.806059 c -2.4687814,0 -4.4560589,-1.987277 -4.4560589,-4.456058 V 10.806059 c 0,-2.4687814 1.9872775,-4.4560589 4.4560589,-4.4560589 z"
       inkscape:label="Rounded Rectangle 72 / 12.632" /><path
       id="rect9"
       style="display:none;opacity:1;fill:#ffffff;fill-opacity:1;stroke-width:0.0280001"
       d="M 0,0 V 38.1 H 38.1 V 0 Z M 19.05,6.3500001 A 12.7,12.7 0 0 1 31.75,19.05 12.7,12.7 0 0 1 19.05,31.75 12.7,12.7 0 0 1 6.3500001,19.05 12.7,12.7 0 0 1 19.05,6.3500001 Z"
       inkscape:label="Circle 72" /></g><g
     inkscape:groupmode="layer"
     id="layer1"
     inkscape:label="Save Zones"
     style="display:none"><circle
       style="display:none;opacity:0.13;fill:#ff71ff;fill-opacity:1;stroke-width:0.39692"
       id="path846"
       cx="19.050001"
       cy="19.050001"
       r="11.641666"
       inkscape:label="Circle 66pt" /><rect
       style="display:none;opacity:0.35;fill:#ff71ff;fill-opacity:1;stroke-width:0.260222"
       id="rect848"
       width="25.4"
       height="25.4"
       x="6.3500004"
       y="6.3500004"
       inkscape:label="Rectangle 72pt"
       inkscape:export-filename="transistor-app-icon-current.png"
       inkscape:export-xdpi="512"
       inkscape:export-ydpi="512" /></g></svg>
